<svg version="1.1" xmlns="http://www.w3.org/2000/svg" viewBox="0 0 2048 2048" width="512" height="512" style="border-radius: 22.5%">
  {/* Standard iOS style background: deep black with high rounded corners (squircle) */}
  <rect width="2048" height="2048" rx="450" fill="black" />
  
  {/* The Lime Node Icon - perfectly centered */}
  <g transform="translate(10, 189)">
    <path
      fill="rgb(88,212,66)"
      d="M 1012.81 342.417 C 1023.28 341.591 1031.77 341.329 1042.06 344 C 1059.69 348.603 1074.69 360.184 1083.61 376.078 C 1093.76 393.979 1094.54 413.926 1089.16 433.417 C 1097.79 439.181 1111.16 446.542 1120.36 451.958 L 1178.68 486.384 C 1229.48 516.467 1281.59 548.252 1332.59 577.667 C 1341.27 567.554 1352.61 560.078 1365.33 556.089 C 1382.9 550.613 1401.94 552.392 1418.19 561.031 C 1461.36 584.021 1467.83 648.265 1427.5 677.371 C 1417.05 684.916 1409.91 687.022 1397.53 690.518 C 1398.39 704.813 1397.81 724.865 1397.85 739.727 L 1397.68 846.067 L 1397.83 935.115 C 1397.81 949.052 1398.29 966.403 1397.34 979.98 C 1413.45 983.707 1423.76 987.852 1435.47 1000.17 C 1461.81 1027.88 1461.18 1072.76 1433.04 1098.88 C 1419.31 1111.47 1401.1 1118.03 1382.49 1117.09 C 1361.04 1116.2 1346.86 1107.12 1332.72 1091.89 C 1266.18 1134.27 1194.74 1172.22 1127.51 1213.8 C 1114.71 1221.72 1100.89 1228.89 1088.6 1237.51 C 1089.4 1239.9 1090.07 1242.32 1090.63 1244.78 C 1099.77 1286.09 1076.18 1321.04 1035.03 1329.38 C 1025.71 1330.43 1016.41 1330.09 1007.29 1327.82 C 989.478 1323.37 974.248 1311.85 965.116 1295.92 C 953.792 1276.52 954.082 1258.24 959.608 1237.21 C 951.742 1231.41 940.014 1224.85 931.403 1219.71 L 879.173 1188.93 C 824.53 1156.81 770.057 1124.39 715.754 1091.7 C 694.809 1115.86 664.349 1124.09 634.563 1111.2 C 617.779 1103.87 604.622 1090.14 598.022 1073.06 C 585.809 1041.09 598.583 1002.43 630.051 986.999 C 635.966 984.098 644.675 981.421 650.976 979.107 C 648.656 914.391 651.32 848.259 650.376 783.395 C 649.929 752.742 650.047 720.739 650.807 690.132 C 614.774 680.77 591.083 655.132 593.759 616.493 C 595.046 598.128 603.62 581.04 617.574 569.031 C 646.04 544.916 691.388 549.167 715.066 578.194 C 795.625 528.066 879.422 482.198 959.331 432.754 C 958.36 430.043 957.494 427.407 956.897 424.581 C 953.164 406.679 956.518 388.027 966.255 372.547 C 977.824 354.505 992.544 346.933 1012.81 342.417 z"
    />
  </g>
</svg>
